<svg width="18" height="20" fill="none" xmlns="http://www.w3.org/2000/svg"><path fill-rule="evenodd" clip-rule="evenodd" d="M9 11c2.396 0 4.575.694 6.178 1.672.8.488 1.484 1.064 1.978 1.69.486.615.844 1.351.844 2.138 0 .845-.411 1.511-1.003 1.986-.56.45-1.299.748-2.084.956C13.335 19.859 11.229 20 9 20s-4.335-.14-5.913-.558c-.785-.208-1.524-.506-2.084-.956C.41 18.01 0 17.345 0 16.5c0-.787.358-1.523.844-2.139.494-.625 1.177-1.2 1.978-1.69C4.425 11.695 6.605 11 9 11zm0 2c-2.023 0-3.843.59-5.136 1.379-.647.394-1.135.822-1.45 1.222-.324.41-.414.72-.414.899 0 .122.037.251.255.426.249.2.682.407 1.344.582C4.917 17.858 6.811 18 9 18c2.19 0 4.083-.143 5.4-.492.663-.175 1.096-.382 1.345-.582.218-.175.255-.304.255-.426 0-.18-.09-.489-.413-.899-.316-.4-.804-.828-1.451-1.222C12.843 13.589 11.023 13 9 13zM9 0a5 5 0 110 10A5 5 0 019 0zm0 2a3 3 0 100 6 3 3 0 000-6z" fill="#03045E"/></svg>