<svg width="73" height="73" fill="none" xmlns="http://www.w3.org/2000/svg"><path d="M36.5.25c20.02 0 36.25 16.23 36.25 36.25S56.52 72.75 36.5 72.75.25 56.52.25 36.5 16.48.25 36.5.25zm0 7.25a29 29 0 100 58 29 29 0 000-58zm-7.689 16.182l7.689 7.692 7.689-7.692a3.626 3.626 0 115.129 5.13l-7.692 7.684 7.692 7.693a3.627 3.627 0 01-5.13 5.129L36.5 41.626l-7.689 7.692a3.627 3.627 0 01-5.129-5.13l7.692-7.688-7.688-7.689a3.625 3.625 0 115.125-5.129z" fill="url(#paint0_linear_112_1707)"/><defs><linearGradient id="paint0_linear_112_1707" x1="71.645" y1=".25" x2="1.355" y2="72.75" gradientUnits="userSpaceOnUse"><stop stop-color="#fff" stop-opacity=".4"/><stop offset="1" stop-color="#fff" stop-opacity="0"/></linearGradient></defs></svg>