<svg width="308" height="87" fill="none" xmlns="http://www.w3.org/2000/svg"><mask id="a" fill="#fff"><path d="M314-427.007L310.021-430 153.5-312.27-3.02-430-7-427.007l160.5 120.724L314-427.007z"/><path d="M314-402.059l-3.979-2.993L153.5-287.322-3.02-405.052-7-402.059l160.5 120.724L314-402.059z"/><path d="M314-377.111l-3.979-2.993L153.5-262.374-3.02-380.104-7-377.111l160.5 120.724L314-377.111z"/><path d="M314-352.163l-3.979-2.993L153.5-237.426-3.02-355.156-7-352.163l160.5 120.724L314-352.163z"/><path d="M314-327.215l-3.979-2.993L153.5-212.478-3.02-330.208-7-327.215l160.5 120.724L314-327.215z"/><path d="M314-302.267l-3.979-2.993L153.5-187.53-3.02-305.26-7-302.267l160.5 120.724L314-302.267z"/><path d="M314-277.319l-3.979-2.993L153.5-162.582-3.02-280.312-7-277.319l160.5 120.724L314-277.319z"/><path d="M314-252.371l-3.979-2.993L153.5-137.634-3.02-255.364-7-252.371l160.5 120.724L314-252.371z"/><path d="M314-227.423l-3.979-2.993L153.5-112.686-3.02-230.416-7-227.423l160.5 120.724L314-227.423z"/><path d="M314-202.475l-3.979-2.993L153.5-87.738-3.02-205.468-7-202.475 153.5-81.751 314-202.475z"/><path d="M314-177.527l-3.979-2.993L153.5-62.79-3.02-180.52-7-177.527 153.5-56.803 314-177.527z"/><path d="M314-152.579l-3.979-2.993L153.5-37.842-3.02-155.572-7-152.579 153.5-31.855 314-152.58z"/><path d="M314-127.631l-3.979-2.993L153.5-12.894-3.02-130.624-7-127.631 153.5-6.907 314-127.631z"/><path d="M314-102.683l-3.979-2.993L153.5 12.054-3.02-105.676-7-102.683 153.5 18.041 314-102.684z"/><path d="M314-77.735l-3.979-2.993L153.5 37.002-3.02-80.728-7-77.736 153.5 42.989 314-77.736z"/><path d="M314-52.787l-3.979-2.994L153.5 61.95-3.02-55.78-7-52.787 153.5 67.936 314-52.787z"/><path d="M314-27.84l-3.979-2.992L153.5 86.898-3.02-30.832-7-27.84 153.5 92.884 314-27.839z"/><path d="M314-2.891l-3.979-2.994L153.5 111.846-3.02-5.884-7-2.892l160.5 120.723L314-2.891z"/><path d="M314 22.056l-3.979-2.993L153.5 136.794-3.02 19.064-7 22.055 153.5 142.78 314 22.056z"/><path d="M314 47.005l-3.979-2.994L153.5 161.742-3.02 44.012-7 47.003l160.5 120.724L314 47.004z"/><path d="M314 71.953l-3.979-2.994L153.5 186.69-3.02 68.96-7 71.952l160.5 120.723L314 71.953z"/><path d="M314 96.9l-3.979-2.993L153.5 211.638-3.02 93.908-7 96.9l160.5 120.724L314 96.9z"/><path d="M314 121.848l-3.979-2.993L153.5 236.586-3.02 118.855-7 121.848l160.5 120.724L314 121.848z"/><path d="M314 146.796l-3.979-2.993L153.5 261.534-3.02 143.803-7 146.796 153.5 267.52 314 146.796z"/><path d="M314 171.744l-3.979-2.993L153.5 286.482-3.02 168.751-7 171.744l160.5 120.724L314 171.744z"/><path d="M314 196.692l-3.979-2.993L153.5 311.43-3.02 193.699-7 196.692l160.5 120.724L314 196.692z"/><path d="M314 221.64l-3.979-2.993L153.5 336.377-3.02 218.647-7 221.64l160.5 120.724L314 221.64z"/><path d="M314 246.588l-3.979-2.993L153.5 361.325-3.02 243.595-7 246.588l160.5 120.724L314 246.588z"/><path d="M314 271.536l-3.979-2.993L153.5 386.273-3.02 268.543-7 271.536 153.5 392.26 314 271.536z"/><path d="M314 296.484l-3.979-2.993L153.5 411.221-3.02 293.491-7 296.484l160.5 120.724L314 296.484z"/><path d="M314 321.432l-3.979-2.993L153.5 436.169-3.02 318.439-7 321.432l160.5 120.724L314 321.432z"/><path d="M314 346.38l-3.979-2.993L153.5 461.117-3.02 343.387-7 346.38l160.5 120.724L314 346.38z"/><path d="M314 371.328l-3.979-2.993L153.5 486.065-3.02 368.335-7 371.328l160.5 120.724L314 371.328z"/><path d="M314 396.276l-3.979-2.993L153.5 511.013-3.02 393.283-7 396.276 153.5 517 314 396.276z"/></mask><path d="M314-427.007L310.021-430 153.5-312.27-3.02-430-7-427.007l160.5 120.724L314-427.007z" fill="url(#paint0_linear_112_1739)"/><path d="M314-402.059l-3.979-2.993L153.5-287.322-3.02-405.052-7-402.059l160.5 120.724L314-402.059z" fill="url(#paint1_linear_112_1739)"/><path d="M314-377.111l-3.979-2.993L153.5-262.374-3.02-380.104-7-377.111l160.5 120.724L314-377.111z" fill="url(#paint2_linear_112_1739)"/><path d="M314-352.163l-3.979-2.993L153.5-237.426-3.02-355.156-7-352.163l160.5 120.724L314-352.163z" fill="url(#paint3_linear_112_1739)"/><path d="M314-327.215l-3.979-2.993L153.5-212.478-3.02-330.208-7-327.215l160.5 120.724L314-327.215z" fill="url(#paint4_linear_112_1739)"/><path d="M314-302.267l-3.979-2.993L153.5-187.53-3.02-305.26-7-302.267l160.5 120.724L314-302.267z" fill="url(#paint5_linear_112_1739)"/><path d="M314-277.319l-3.979-2.993L153.5-162.582-3.02-280.312-7-277.319l160.5 120.724L314-277.319z" fill="url(#paint6_linear_112_1739)"/><path d="M314-252.371l-3.979-2.993L153.5-137.634-3.02-255.364-7-252.371l160.5 120.724L314-252.371z" fill="url(#paint7_linear_112_1739)"/><path d="M314-227.423l-3.979-2.993L153.5-112.686-3.02-230.416-7-227.423l160.5 120.724L314-227.423z" fill="url(#paint8_linear_112_1739)"/><path d="M314-202.475l-3.979-2.993L153.5-87.738-3.02-205.468-7-202.475 153.5-81.751 314-202.475z" fill="url(#paint9_linear_112_1739)"/><path d="M314-177.527l-3.979-2.993L153.5-62.79-3.02-180.52-7-177.527 153.5-56.803 314-177.527z" fill="url(#paint10_linear_112_1739)"/><path d="M314-152.579l-3.979-2.993L153.5-37.842-3.02-155.572-7-152.579 153.5-31.855 314-152.58z" fill="url(#paint11_linear_112_1739)"/><path d="M314-127.631l-3.979-2.993L153.5-12.894-3.02-130.624-7-127.631 153.5-6.907 314-127.631z" fill="url(#paint12_linear_112_1739)"/><path d="M314-102.683l-3.979-2.993L153.5 12.054-3.02-105.676-7-102.683 153.5 18.041 314-102.684z" fill="url(#paint13_linear_112_1739)"/><path d="M314-77.735l-3.979-2.993L153.5 37.002-3.02-80.728-7-77.736 153.5 42.989 314-77.736z" fill="url(#paint14_linear_112_1739)"/><path d="M314-52.787l-3.979-2.994L153.5 61.95-3.02-55.78-7-52.787 153.5 67.936 314-52.787z" fill="url(#paint15_linear_112_1739)"/><path d="M314-27.84l-3.979-2.992L153.5 86.898-3.02-30.832-7-27.84 153.5 92.884 314-27.839z" fill="url(#paint16_linear_112_1739)"/><path d="M314-2.891l-3.979-2.994L153.5 111.846-3.02-5.884-7-2.892l160.5 120.723L314-2.891z" fill="url(#paint17_linear_112_1739)"/><path d="M314 22.056l-3.979-2.993L153.5 136.794-3.02 19.064-7 22.055 153.5 142.78 314 22.056z" fill="url(#paint18_linear_112_1739)"/><path d="M314 47.005l-3.979-2.994L153.5 161.742-3.02 44.012-7 47.003l160.5 120.724L314 47.004z" fill="url(#paint19_linear_112_1739)"/><path d="M314 71.953l-3.979-2.994L153.5 186.69-3.02 68.96-7 71.952l160.5 120.723L314 71.953z" fill="url(#paint20_linear_112_1739)"/><path d="M314 96.9l-3.979-2.993L153.5 211.638-3.02 93.908-7 96.9l160.5 120.724L314 96.9z" fill="url(#paint21_linear_112_1739)"/><path d="M314 121.848l-3.979-2.993L153.5 236.586-3.02 118.855-7 121.848l160.5 120.724L314 121.848z" fill="url(#paint22_linear_112_1739)"/><path d="M314 146.796l-3.979-2.993L153.5 261.534-3.02 143.803-7 146.796 153.5 267.52 314 146.796z" fill="url(#paint23_linear_112_1739)"/><path d="M314 171.744l-3.979-2.993L153.5 286.482-3.02 168.751-7 171.744l160.5 120.724L314 171.744z" fill="url(#paint24_linear_112_1739)"/><path d="M314 196.692l-3.979-2.993L153.5 311.43-3.02 193.699-7 196.692l160.5 120.724L314 196.692z" fill="url(#paint25_linear_112_1739)"/><path d="M314 221.64l-3.979-2.993L153.5 336.377-3.02 218.647-7 221.64l160.5 120.724L314 221.64z" fill="url(#paint26_linear_112_1739)"/><path d="M314 246.588l-3.979-2.993L153.5 361.325-3.02 243.595-7 246.588l160.5 120.724L314 246.588z" fill="url(#paint27_linear_112_1739)"/><path d="M314 271.536l-3.979-2.993L153.5 386.273-3.02 268.543-7 271.536 153.5 392.26 314 271.536z" fill="url(#paint28_linear_112_1739)"/><path d="M314 296.484l-3.979-2.993L153.5 411.221-3.02 293.491-7 296.484l160.5 120.724L314 296.484z" fill="url(#paint29_linear_112_1739)"/><path d="M314 321.432l-3.979-2.993L153.5 436.169-3.02 318.439-7 321.432l160.5 120.724L314 321.432z" fill="url(#paint30_linear_112_1739)"/><path d="M314 346.38l-3.979-2.993L153.5 461.117-3.02 343.387-7 346.38l160.5 120.724L314 346.38z" fill="url(#paint31_linear_112_1739)"/><path d="M314 371.328l-3.979-2.993L153.5 486.065-3.02 368.335-7 371.328l160.5 120.724L314 371.328z" fill="url(#paint32_linear_112_1739)"/><path d="M314 396.276l-3.979-2.993L153.5 511.013-3.02 393.283-7 396.276 153.5 517 314 396.276z" fill="url(#paint33_linear_112_1739)"/><path d="M314-427.007L310.021-430 153.5-312.27-3.02-430-7-427.007l160.5 120.724L314-427.007z" stroke="#fff" stroke-width="2" mask="url(#a)"/><path d="M314-402.059l-3.979-2.993L153.5-287.322-3.02-405.052-7-402.059l160.5 120.724L314-402.059z" stroke="#fff" stroke-width="2" mask="url(#a)"/><path d="M314-377.111l-3.979-2.993L153.5-262.374-3.02-380.104-7-377.111l160.5 120.724L314-377.111z" stroke="#fff" stroke-width="2" mask="url(#a)"/><path d="M314-352.163l-3.979-2.993L153.5-237.426-3.02-355.156-7-352.163l160.5 120.724L314-352.163z" stroke="#fff" stroke-width="2" mask="url(#a)"/><path d="M314-327.215l-3.979-2.993L153.5-212.478-3.02-330.208-7-327.215l160.5 120.724L314-327.215z" stroke="#fff" stroke-width="2" mask="url(#a)"/><path d="M314-302.267l-3.979-2.993L153.5-187.53-3.02-305.26-7-302.267l160.5 120.724L314-302.267z" stroke="#fff" stroke-width="2" mask="url(#a)"/><path d="M314-277.319l-3.979-2.993L153.5-162.582-3.02-280.312-7-277.319l160.5 120.724L314-277.319z" stroke="#fff" stroke-width="2" mask="url(#a)"/><path d="M314-252.371l-3.979-2.993L153.5-137.634-3.02-255.364-7-252.371l160.5 120.724L314-252.371z" stroke="#fff" stroke-width="2" mask="url(#a)"/><path d="M314-227.423l-3.979-2.993L153.5-112.686-3.02-230.416-7-227.423l160.5 120.724L314-227.423z" stroke="#fff" stroke-width="2" mask="url(#a)"/><path d="M314-202.475l-3.979-2.993L153.5-87.738-3.02-205.468-7-202.475 153.5-81.751 314-202.475z" stroke="#fff" stroke-width="2" mask="url(#a)"/><path d="M314-177.527l-3.979-2.993L153.5-62.79-3.02-180.52-7-177.527 153.5-56.803 314-177.527z" stroke="#fff" stroke-width="2" mask="url(#a)"/><path d="M314-152.579l-3.979-2.993L153.5-37.842-3.02-155.572-7-152.579 153.5-31.855 314-152.58z" stroke="#fff" stroke-width="2" mask="url(#a)"/><path d="M314-127.631l-3.979-2.993L153.5-12.894-3.02-130.624-7-127.631 153.5-6.907 314-127.631z" stroke="#fff" stroke-width="2" mask="url(#a)"/><path d="M314-102.683l-3.979-2.993L153.5 12.054-3.02-105.676-7-102.683 153.5 18.041 314-102.684z" stroke="#fff" stroke-width="2" mask="url(#a)"/><path d="M314-77.735l-3.979-2.993L153.5 37.002-3.02-80.728-7-77.736 153.5 42.989 314-77.736z" stroke="#fff" stroke-width="2" mask="url(#a)"/><path d="M314-52.787l-3.979-2.994L153.5 61.95-3.02-55.78-7-52.787 153.5 67.936 314-52.787z" stroke="#fff" stroke-width="2" mask="url(#a)"/><path d="M314-27.84l-3.979-2.992L153.5 86.898-3.02-30.832-7-27.84 153.5 92.884 314-27.839z" stroke="#fff" stroke-width="2" mask="url(#a)"/><path d="M314-2.891l-3.979-2.994L153.5 111.846-3.02-5.884-7-2.892l160.5 120.723L314-2.891z" stroke="#fff" stroke-width="2" mask="url(#a)"/><path d="M314 22.056l-3.979-2.993L153.5 136.794-3.02 19.064-7 22.055 153.5 142.78 314 22.056z" stroke="#fff" stroke-width="2" mask="url(#a)"/><path d="M314 47.005l-3.979-2.994L153.5 161.742-3.02 44.012-7 47.003l160.5 120.724L314 47.004z" stroke="#fff" stroke-width="2" mask="url(#a)"/><path d="M314 71.953l-3.979-2.994L153.5 186.69-3.02 68.96-7 71.952l160.5 120.723L314 71.953z" stroke="#fff" stroke-width="2" mask="url(#a)"/><path d="M314 96.9l-3.979-2.993L153.5 211.638-3.02 93.908-7 96.9l160.5 120.724L314 96.9z" stroke="#fff" stroke-width="2" mask="url(#a)"/><path d="M314 121.848l-3.979-2.993L153.5 236.586-3.02 118.855-7 121.848l160.5 120.724L314 121.848z" stroke="#fff" stroke-width="2" mask="url(#a)"/><path d="M314 146.796l-3.979-2.993L153.5 261.534-3.02 143.803-7 146.796 153.5 267.52 314 146.796z" stroke="#fff" stroke-width="2" mask="url(#a)"/><path d="M314 171.744l-3.979-2.993L153.5 286.482-3.02 168.751-7 171.744l160.5 120.724L314 171.744z" stroke="#fff" stroke-width="2" mask="url(#a)"/><path d="M314 196.692l-3.979-2.993L153.5 311.43-3.02 193.699-7 196.692l160.5 120.724L314 196.692z" stroke="#fff" stroke-width="2" mask="url(#a)"/><path d="M314 221.64l-3.979-2.993L153.5 336.377-3.02 218.647-7 221.64l160.5 120.724L314 221.64z" stroke="#fff" stroke-width="2" mask="url(#a)"/><path d="M314 246.588l-3.979-2.993L153.5 361.325-3.02 243.595-7 246.588l160.5 120.724L314 246.588z" stroke="#fff" stroke-width="2" mask="url(#a)"/><path d="M314 271.536l-3.979-2.993L153.5 386.273-3.02 268.543-7 271.536 153.5 392.26 314 271.536z" stroke="#fff" stroke-width="2" mask="url(#a)"/><path d="M314 296.484l-3.979-2.993L153.5 411.221-3.02 293.491-7 296.484l160.5 120.724L314 296.484z" stroke="#fff" stroke-width="2" mask="url(#a)"/><path d="M314 321.432l-3.979-2.993L153.5 436.169-3.02 318.439-7 321.432l160.5 120.724L314 321.432z" stroke="#fff" stroke-width="2" mask="url(#a)"/><path d="M314 346.38l-3.979-2.993L153.5 461.117-3.02 343.387-7 346.38l160.5 120.724L314 346.38z" stroke="#fff" stroke-width="2" mask="url(#a)"/><path d="M314 371.328l-3.979-2.993L153.5 486.065-3.02 368.335-7 371.328l160.5 120.724L314 371.328z" stroke="#fff" stroke-width="2" mask="url(#a)"/><path d="M314 396.276l-3.979-2.993L153.5 511.013-3.02 393.283-7 396.276 153.5 517 314 396.276z" stroke="#fff" stroke-width="2" mask="url(#a)"/><defs><linearGradient id="paint0_linear_112_1739" x1="309" y1="43" x2="1.355" y2="93.699" gradientUnits="userSpaceOnUse"><stop stop-color="#02CEAF"/><stop offset="1" stop-color="#0260C7"/></linearGradient><linearGradient id="paint1_linear_112_1739" x1="309" y1="43" x2="1.355" y2="93.699" gradientUnits="userSpaceOnUse"><stop stop-color="#02CEAF"/><stop offset="1" stop-color="#0260C7"/></linearGradient><linearGradient id="paint2_linear_112_1739" x1="309" y1="43" x2="1.355" y2="93.699" gradientUnits="userSpaceOnUse"><stop stop-color="#02CEAF"/><stop offset="1" stop-color="#0260C7"/></linearGradient><linearGradient id="paint3_linear_112_1739" x1="309" y1="43" x2="1.355" y2="93.699" gradientUnits="userSpaceOnUse"><stop stop-color="#02CEAF"/><stop offset="1" stop-color="#0260C7"/></linearGradient><linearGradient id="paint4_linear_112_1739" x1="309" y1="43" x2="1.355" y2="93.699" gradientUnits="userSpaceOnUse"><stop stop-color="#02CEAF"/><stop offset="1" stop-color="#0260C7"/></linearGradient><linearGradient id="paint5_linear_112_1739" x1="309" y1="43" x2="1.355" y2="93.699" gradientUnits="userSpaceOnUse"><stop stop-color="#02CEAF"/><stop offset="1" stop-color="#0260C7"/></linearGradient><linearGradient id="paint6_linear_112_1739" x1="309" y1="43" x2="1.355" y2="93.699" gradientUnits="userSpaceOnUse"><stop stop-color="#02CEAF"/><stop offset="1" stop-color="#0260C7"/></linearGradient><linearGradient id="paint7_linear_112_1739" x1="309" y1="43" x2="1.355" y2="93.699" gradientUnits="userSpaceOnUse"><stop stop-color="#02CEAF"/><stop offset="1" stop-color="#0260C7"/></linearGradient><linearGradient id="paint8_linear_112_1739" x1="309" y1="43" x2="1.355" y2="93.699" gradientUnits="userSpaceOnUse"><stop stop-color="#02CEAF"/><stop offset="1" stop-color="#0260C7"/></linearGradient><linearGradient id="paint9_linear_112_1739" x1="309" y1="43" x2="1.355" y2="93.699" gradientUnits="userSpaceOnUse"><stop stop-color="#02CEAF"/><stop offset="1" stop-color="#0260C7"/></linearGradient><linearGradient id="paint10_linear_112_1739" x1="309" y1="43" x2="1.355" y2="93.699" gradientUnits="userSpaceOnUse"><stop stop-color="#02CEAF"/><stop offset="1" stop-color="#0260C7"/></linearGradient><linearGradient id="paint11_linear_112_1739" x1="309" y1="43" x2="1.355" y2="93.699" gradientUnits="userSpaceOnUse"><stop stop-color="#02CEAF"/><stop offset="1" stop-color="#0260C7"/></linearGradient><linearGradient id="paint12_linear_112_1739" x1="309" y1="43" x2="1.355" y2="93.699" gradientUnits="userSpaceOnUse"><stop stop-color="#02CEAF"/><stop offset="1" stop-color="#0260C7"/></linearGradient><linearGradient id="paint13_linear_112_1739" x1="309" y1="43" x2="1.355" y2="93.699" gradientUnits="userSpaceOnUse"><stop stop-color="#02CEAF"/><stop offset="1" stop-color="#0260C7"/></linearGradient><linearGradient id="paint14_linear_112_1739" x1="309" y1="43" x2="1.355" y2="93.699" gradientUnits="userSpaceOnUse"><stop stop-color="#02CEAF"/><stop offset="1" stop-color="#0260C7"/></linearGradient><linearGradient id="paint15_linear_112_1739" x1="309" y1="43" x2="1.355" y2="93.699" gradientUnits="userSpaceOnUse"><stop stop-color="#02CEAF"/><stop offset="1" stop-color="#0260C7"/></linearGradient><linearGradient id="paint16_linear_112_1739" x1="309" y1="43" x2="1.355" y2="93.699" gradientUnits="userSpaceOnUse"><stop stop-color="#02CEAF"/><stop offset="1" stop-color="#0260C7"/></linearGradient><linearGradient id="paint17_linear_112_1739" x1="309" y1="43" x2="1.355" y2="93.699" gradientUnits="userSpaceOnUse"><stop stop-color="#02CEAF"/><stop offset="1" stop-color="#0260C7"/></linearGradient><linearGradient id="paint18_linear_112_1739" x1="309" y1="43" x2="1.355" y2="93.699" gradientUnits="userSpaceOnUse"><stop stop-color="#02CEAF"/><stop offset="1" stop-color="#0260C7"/></linearGradient><linearGradient id="paint19_linear_112_1739" x1="309" y1="43" x2="1.355" y2="93.699" gradientUnits="userSpaceOnUse"><stop stop-color="#02CEAF"/><stop offset="1" stop-color="#0260C7"/></linearGradient><linearGradient id="paint20_linear_112_1739" x1="309" y1="43" x2="1.355" y2="93.699" gradientUnits="userSpaceOnUse"><stop stop-color="#02CEAF"/><stop offset="1" stop-color="#0260C7"/></linearGradient><linearGradient id="paint21_linear_112_1739" x1="309" y1="43" x2="1.355" y2="93.699" gradientUnits="userSpaceOnUse"><stop stop-color="#02CEAF"/><stop offset="1" stop-color="#0260C7"/></linearGradient><linearGradient id="paint22_linear_112_1739" x1="309" y1="43" x2="1.355" y2="93.699" gradientUnits="userSpaceOnUse"><stop stop-color="#02CEAF"/><stop offset="1" stop-color="#0260C7"/></linearGradient><linearGradient id="paint23_linear_112_1739" x1="309" y1="43" x2="1.355" y2="93.699" gradientUnits="userSpaceOnUse"><stop stop-color="#02CEAF"/><stop offset="1" stop-color="#0260C7"/></linearGradient><linearGradient id="paint24_linear_112_1739" x1="309" y1="43" x2="1.355" y2="93.699" gradientUnits="userSpaceOnUse"><stop stop-color="#02CEAF"/><stop offset="1" stop-color="#0260C7"/></linearGradient><linearGradient id="paint25_linear_112_1739" x1="309" y1="43" x2="1.355" y2="93.699" gradientUnits="userSpaceOnUse"><stop stop-color="#02CEAF"/><stop offset="1" stop-color="#0260C7"/></linearGradient><linearGradient id="paint26_linear_112_1739" x1="309" y1="43" x2="1.355" y2="93.699" gradientUnits="userSpaceOnUse"><stop stop-color="#02CEAF"/><stop offset="1" stop-color="#0260C7"/></linearGradient><linearGradient id="paint27_linear_112_1739" x1="309" y1="43" x2="1.355" y2="93.699" gradientUnits="userSpaceOnUse"><stop stop-color="#02CEAF"/><stop offset="1" stop-color="#0260C7"/></linearGradient><linearGradient id="paint28_linear_112_1739" x1="309" y1="43" x2="1.355" y2="93.699" gradientUnits="userSpaceOnUse"><stop stop-color="#02CEAF"/><stop offset="1" stop-color="#0260C7"/></linearGradient><linearGradient id="paint29_linear_112_1739" x1="309" y1="43" x2="1.355" y2="93.699" gradientUnits="userSpaceOnUse"><stop stop-color="#02CEAF"/><stop offset="1" stop-color="#0260C7"/></linearGradient><linearGradient id="paint30_linear_112_1739" x1="309" y1="43" x2="1.355" y2="93.699" gradientUnits="userSpaceOnUse"><stop stop-color="#02CEAF"/><stop offset="1" stop-color="#0260C7"/></linearGradient><linearGradient id="paint31_linear_112_1739" x1="309" y1="43" x2="1.355" y2="93.699" gradientUnits="userSpaceOnUse"><stop stop-color="#02CEAF"/><stop offset="1" stop-color="#0260C7"/></linearGradient><linearGradient id="paint32_linear_112_1739" x1="309" y1="43" x2="1.355" y2="93.699" gradientUnits="userSpaceOnUse"><stop stop-color="#02CEAF"/><stop offset="1" stop-color="#0260C7"/></linearGradient><linearGradient id="paint33_linear_112_1739" x1="309" y1="43" x2="1.355" y2="93.699" gradientUnits="userSpaceOnUse"><stop stop-color="#02CEAF"/><stop offset="1" stop-color="#0260C7"/></linearGradient></defs></svg>