<svg width="102" height="36" fill="none" xmlns="http://www.w3.org/2000/svg"><rect x=".304" y=".304" width="101.392" height="35.392" rx="17.696" fill="#fff"/><rect x=".304" y=".304" width="101.392" height="35.392" rx="17.696" stroke="#36317B" stroke-width=".608"/><circle cx="20" cy="18" r="12" fill="#36317B"/><path d="M13.684 13.579L18.737 18l-5.053 4.421" stroke="#15C26E" stroke-width="1.263" stroke-linecap="round"/><path d="M26.316 13.579L21.263 18l5.053 4.421" stroke="#FE3131" stroke-width="1.263" stroke-linecap="round"/><path d="M46.103 23.675a6.282 6.282 0 01-2.204-.38 5.27 5.27 0 01-1.753-1.11 5.211 5.211 0 01-1.168-1.678 5.365 5.365 0 01-.409-2.117c0-.77.137-1.475.41-2.118a5.211 5.211 0 011.167-1.679 5.243 5.243 0 011.767-1.095 6 6 0 012.205-.394c.886 0 1.684.156 2.395.467.72.302 1.324.75 1.81 1.343l-1.518 1.402a3.447 3.447 0 00-1.169-.89 3.212 3.212 0 00-1.401-.307 3.6 3.6 0 00-1.314.233c-.4.156-.745.38-1.037.672a3.16 3.16 0 00-.686 1.037 3.622 3.622 0 00-.234 1.329c0 .486.078.93.234 1.328.165.4.394.745.686 1.037.292.292.638.516 1.037.672a3.6 3.6 0 001.314.233c.506 0 .973-.097 1.401-.292a3.565 3.565 0 001.169-.92l1.518 1.402a4.733 4.733 0 01-1.81 1.358c-.711.312-1.514.467-2.41.467zm4.289-.175l4.555-10.221h2.337l4.57 10.221h-2.482l-3.738-9.024h.934L52.816 23.5h-2.424zm2.278-2.19l.627-1.796h5.257l.642 1.796H52.67zm10.244 2.19V13.279h4.425c.915 0 1.703.15 2.365.453.662.292 1.173.715 1.533 1.27.36.555.54 1.217.54 1.986 0 .759-.18 1.416-.54 1.971-.36.545-.871.964-1.533 1.256-.662.292-1.45.438-2.365.438h-3.11l1.05-1.037V23.5h-2.365zm6.498 0l-2.555-3.709h2.526l2.584 3.709h-2.555zm-4.132-3.621l-1.052-1.11h2.98c.73 0 1.274-.156 1.635-.467.36-.321.54-.76.54-1.314 0-.565-.18-1.003-.54-1.314-.36-.312-.906-.468-1.636-.468H64.23l1.05-1.124v5.797zm8.37 3.621V13.279h4.644c1.11 0 2.088.214 2.935.643a4.801 4.801 0 011.986 1.766c.476.76.715 1.66.715 2.702 0 1.031-.239 1.932-.715 2.7-.477.76-1.14 1.354-1.986 1.782-.847.419-1.826.628-2.935.628H73.65zm2.366-1.942h2.161c.681 0 1.27-.127 1.767-.38a2.796 2.796 0 001.168-1.11c.282-.476.423-1.036.423-1.678 0-.653-.14-1.212-.423-1.68a2.706 2.706 0 00-1.168-1.095c-.497-.263-1.086-.394-1.767-.394h-2.161v6.337zm13.056 2.117a8.518 8.518 0 01-2.35-.321c-.75-.224-1.354-.511-1.811-.861l.803-1.782c.438.312.954.57 1.548.774a5.912 5.912 0 001.825.292c.467 0 .842-.044 1.124-.131.292-.098.506-.23.642-.395a.87.87 0 00.205-.57.751.751 0 00-.321-.642c-.215-.165-.497-.296-.847-.394-.35-.107-.74-.204-1.168-.292a16.58 16.58 0 01-1.27-.35 5.418 5.418 0 01-1.154-.526 2.65 2.65 0 01-.862-.847c-.214-.35-.32-.798-.32-1.343 0-.584.155-1.115.466-1.592.322-.486.799-.87 1.431-1.153.643-.292 1.446-.438 2.41-.438.642 0 1.275.078 1.898.233.623.146 1.173.37 1.65.672l-.73 1.796a5.974 5.974 0 00-1.431-.599 5.087 5.087 0 00-1.402-.204c-.458 0-.832.053-1.124.16-.292.108-.502.249-.628.424a.934.934 0 00-.19.584c0 .263.107.477.321.643.214.155.497.282.847.38.35.096.735.194 1.154.291.428.098.851.21 1.27.336a4.88 4.88 0 011.168.511c.35.214.633.497.847.847.224.35.336.793.336 1.329 0 .574-.16 1.1-.482 1.577-.321.477-.803.861-1.446 1.153-.632.292-1.435.438-2.409.438z" fill="#36317B"/></svg>