<svg width="111" height="110" fill="none" xmlns="http://www.w3.org/2000/svg"><g clip-path="url(#clip0_301_1069)"><rect x=".5" width="110" height="110" rx="25.385" fill="#03045E"/><g filter="url(#filter0_f_301_1069)"><circle cx=".5" cy=".5" r="68.5" fill="url(#paint0_radial_301_1069)"/></g><g filter="url(#filter1_f_301_1069)"><circle cx="110.5" cy="110.5" r="68.5" fill="url(#paint1_radial_301_1069)"/></g><g clip-path="url(#clip1_301_1069)"><path d="M55 34.167c11.506 0 20.833 9.327 20.833 20.833 0 11.506-9.327 20.833-20.833 20.833-11.506 0-20.833-9.327-20.833-20.833 0-11.506 9.327-20.833 20.833-20.833zm0 29.166a2.083 2.083 0 100 4.167 2.083 2.083 0 000-4.167zm0-19.791a7.552 7.552 0 00-7.552 7.552 2.083 2.083 0 004.167 0 3.386 3.386 0 114.645 3.145c-1.408.563-3.343 2.005-3.343 4.407v.52a2.083 2.083 0 104.166 0c0-.508.105-.762.544-.978l.181-.084A7.554 7.554 0 0055 43.542z" fill="#fff"/></g></g><defs><radialGradient id="paint0_radial_301_1069" cx="0" cy="0" r="1" gradientUnits="userSpaceOnUse" gradientTransform="rotate(90 0 .5) scale(68.5)"><stop stop-color="#00FFA3"/><stop offset="1" stop-color="#00FFA3" stop-opacity="0"/></radialGradient><radialGradient id="paint1_radial_301_1069" cx="0" cy="0" r="1" gradientUnits="userSpaceOnUse" gradientTransform="rotate(90 0 110.5) scale(68.5)"><stop stop-color="#00FFA3"/><stop offset="1" stop-color="#00FFA3" stop-opacity="0"/></radialGradient><clipPath id="clip0_301_1069"><rect x=".5" width="110" height="110" rx="25.385" fill="#fff"/></clipPath><clipPath id="clip1_301_1069"><path fill="#fff" transform="translate(30 30)" d="M0 0h50v50H0z"/></clipPath><filter id="filter0_f_301_1069" x="-133.4" y="-133.4" width="267.8" height="267.8" filterUnits="userSpaceOnUse" color-interpolation-filters="sRGB"><feFlood flood-opacity="0" result="BackgroundImageFix"/><feBlend in="SourceGraphic" in2="BackgroundImageFix" result="shape"/><feGaussianBlur stdDeviation="32.7" result="effect1_foregroundBlur_301_1069"/></filter><filter id="filter1_f_301_1069" x="-23.4" y="-23.4" width="267.8" height="267.8" filterUnits="userSpaceOnUse" color-interpolation-filters="sRGB"><feFlood flood-opacity="0" result="BackgroundImageFix"/><feBlend in="SourceGraphic" in2="BackgroundImageFix" result="shape"/><feGaussianBlur stdDeviation="32.7" result="effect1_foregroundBlur_301_1069"/></filter></defs></svg>