<svg width="111" height="110" fill="none" xmlns="http://www.w3.org/2000/svg"><g clip-path="url(#clip0_301_927)"><rect x=".5" width="110" height="110" rx="25.385" fill="#03045E"/><g filter="url(#filter0_f_301_927)"><circle cx=".5" cy=".5" r="68.5" fill="url(#paint0_radial_301_927)"/></g><g filter="url(#filter1_f_301_927)"><circle cx="110.5" cy="110.5" r="68.5" fill="url(#paint1_radial_301_927)"/></g><g clip-path="url(#clip1_301_927)"><path d="M55.5 35.208a3.125 3.125 0 01.3 6.236l-.3.014H45.083a1.041 1.041 0 00-1.025.855l-.016.187v25a1.042 1.042 0 00.854 1.025l.187.017h9.375a3.125 3.125 0 01.3 6.235l-.3.015h-9.375a7.291 7.291 0 01-7.28-6.892l-.011-.4v-25a7.292 7.292 0 016.891-7.281l.4-.01H55.5zm4.042 11.688a3.125 3.125 0 014.633 4.183l-.214.238-.559.558h8.765a3.125 3.125 0 01.3 6.236l-.3.014h-8.765l.559.558a3.125 3.125 0 01-4.184 4.634l-.237-.215-5.892-5.891a3.125 3.125 0 01-.215-4.184l.215-.237 5.892-5.892.002-.002z" fill="#fff"/></g></g><defs><radialGradient id="paint0_radial_301_927" cx="0" cy="0" r="1" gradientUnits="userSpaceOnUse" gradientTransform="rotate(90 0 .5) scale(68.5)"><stop stop-color="#00FFA3"/><stop offset="1" stop-color="#00FFA3" stop-opacity="0"/></radialGradient><radialGradient id="paint1_radial_301_927" cx="0" cy="0" r="1" gradientUnits="userSpaceOnUse" gradientTransform="rotate(90 0 110.5) scale(68.5)"><stop stop-color="#00FFA3"/><stop offset="1" stop-color="#00FFA3" stop-opacity="0"/></radialGradient><clipPath id="clip0_301_927"><rect x=".5" width="110" height="110" rx="25.385" fill="#fff"/></clipPath><clipPath id="clip1_301_927"><path fill="#fff" transform="translate(30.5 30)" d="M0 0h50v50H0z"/></clipPath><filter id="filter0_f_301_927" x="-133.4" y="-133.4" width="267.8" height="267.8" filterUnits="userSpaceOnUse" color-interpolation-filters="sRGB"><feFlood flood-opacity="0" result="BackgroundImageFix"/><feBlend in="SourceGraphic" in2="BackgroundImageFix" result="shape"/><feGaussianBlur stdDeviation="32.7" result="effect1_foregroundBlur_301_927"/></filter><filter id="filter1_f_301_927" x="-23.4" y="-23.4" width="267.8" height="267.8" filterUnits="userSpaceOnUse" color-interpolation-filters="sRGB"><feFlood flood-opacity="0" result="BackgroundImageFix"/><feBlend in="SourceGraphic" in2="BackgroundImageFix" result="shape"/><feGaussianBlur stdDeviation="32.7" result="effect1_foregroundBlur_301_927"/></filter></defs></svg>