<svg width="111" height="110" fill="none" xmlns="http://www.w3.org/2000/svg"><g clip-path="url(#clip0_301_990)"><rect x=".5" width="110" height="110" rx="25.385" fill="#03045E"/><g filter="url(#filter0_f_301_990)"><circle cx=".5" cy=".5" r="68.5" fill="url(#paint0_radial_301_990)"/></g><g filter="url(#filter1_f_301_990)"><circle cx="110.5" cy="110.5" r="68.5" fill="url(#paint1_radial_301_990)"/></g><g clip-path="url(#clip1_301_990)"><path d="M68.11 66.027a2.083 2.083 0 013.12 2.75l-.174.196-3.125 3.125a6.502 6.502 0 01-9.196 0 2.337 2.337 0 00-3.1-.181l-.204.18-1.041 1.043a2.083 2.083 0 01-3.12-2.75l.174-.196 1.041-1.042a6.502 6.502 0 019.196 0 2.338 2.338 0 003.1.181l.204-.18 3.125-3.126zm-3.77-27.73a5.208 5.208 0 017.618 7.099l-.254.27-24.116 24.115c-.3.3-.659.536-1.053.694l-.302.102-5.91 1.681a2.086 2.086 0 01-2.63-2.354l.053-.223 1.681-5.912c.117-.408.315-.788.583-1.117l.213-.237L64.34 38.298z" fill="#fff"/></g></g><defs><radialGradient id="paint0_radial_301_990" cx="0" cy="0" r="1" gradientUnits="userSpaceOnUse" gradientTransform="rotate(90 0 .5) scale(68.5)"><stop stop-color="#00FFA3"/><stop offset="1" stop-color="#00FFA3" stop-opacity="0"/></radialGradient><radialGradient id="paint1_radial_301_990" cx="0" cy="0" r="1" gradientUnits="userSpaceOnUse" gradientTransform="rotate(90 0 110.5) scale(68.5)"><stop stop-color="#00FFA3"/><stop offset="1" stop-color="#00FFA3" stop-opacity="0"/></radialGradient><clipPath id="clip0_301_990"><rect x=".5" width="110" height="110" rx="25.385" fill="#fff"/></clipPath><clipPath id="clip1_301_990"><path fill="#fff" transform="translate(30 30)" d="M0 0h50v50H0z"/></clipPath><filter id="filter0_f_301_990" x="-133.4" y="-133.4" width="267.8" height="267.8" filterUnits="userSpaceOnUse" color-interpolation-filters="sRGB"><feFlood flood-opacity="0" result="BackgroundImageFix"/><feBlend in="SourceGraphic" in2="BackgroundImageFix" result="shape"/><feGaussianBlur stdDeviation="32.7" result="effect1_foregroundBlur_301_990"/></filter><filter id="filter1_f_301_990" x="-23.4" y="-23.4" width="267.8" height="267.8" filterUnits="userSpaceOnUse" color-interpolation-filters="sRGB"><feFlood flood-opacity="0" result="BackgroundImageFix"/><feBlend in="SourceGraphic" in2="BackgroundImageFix" result="shape"/><feGaussianBlur stdDeviation="32.7" result="effect1_foregroundBlur_301_990"/></filter></defs></svg>