<svg width="174" height="194" fill="none" xmlns="http://www.w3.org/2000/svg"><mask id="a" style="mask-type:alpha" maskUnits="userSpaceOnUse" x="0" y="0" width="174" height="194"><path fill-rule="evenodd" clip-rule="evenodd" d="M80.214 2.218a19.333 19.333 0 0113.572 0l67.667 25.375A19.33 19.33 0 01174 45.7v51.842a86.997 86.997 0 01-48.092 77.817L93.486 191.57a14.504 14.504 0 01-12.972 0l-32.422-16.211A87.002 87.002 0 010 97.541V45.7a19.333 19.333 0 0112.547-18.106L80.214 2.218z" fill="url(#paint0_linear_2014_708)"/></mask><g mask="url(#a)"><path fill-rule="evenodd" clip-rule="evenodd" d="M80.214 2.218a19.333 19.333 0 0113.572 0l67.667 25.375A19.33 19.33 0 01174 45.7v51.842a86.997 86.997 0 01-48.092 77.817L93.486 191.57a14.504 14.504 0 01-12.972 0l-32.422-16.211A87.002 87.002 0 010 97.541V45.7a19.333 19.333 0 0112.547-18.106L80.214 2.218z" fill="url(#paint1_linear_2014_708)"/><g filter="url(#filter0_f_2014_708)"><circle cx="19.72" cy="212.72" r="106.72" fill="#0BAE5F" fill-opacity=".84"/></g><g opacity=".9" filter="url(#filter1_f_2014_708)"><circle cx="202.72" cy="3.72" r="106.72" fill="#AE0B0B" fill-opacity=".84"/></g><path d="M14.5 53.596v0c0-3.21.973-6.344 2.79-8.982a15.675 15.675 0 017.375-5.781h0l56.84-21.45s0 0 0 0a15.564 15.564 0 0110.99 0s0 0 0 0l56.84 21.45.205-.543-.204.543a15.671 15.671 0 017.374 5.78 15.836 15.836 0 012.79 8.983V97.42a73.315 73.315 0 01-10.828 38.362 72.666 72.666 0 01-29.25 26.901l-27.234 13.704.26.518-.26-.518a11.535 11.535 0 01-10.376 0l-.26.518.26-.518-27.234-13.704a72.666 72.666 0 01-29.25-26.901A73.314 73.314 0 0114.5 97.42V53.596z" stroke="#fff" stroke-width="1.16"/></g><circle cx="87" cy="97" r="34.8" fill="#fff"/><path d="M68.684 84.179L83.337 97l-14.653 12.821" stroke="#15C26E" stroke-width="3.663" stroke-linecap="round"/><path d="M105.316 84.179L90.663 97l14.653 12.821" stroke="#FE3131" stroke-width="3.663" stroke-linecap="round"/><defs><linearGradient id="paint0_linear_2014_708" x1="170.82" y1=".988" x2="3.18" y2="193.101" gradientUnits="userSpaceOnUse"><stop stop-color="#03045E"/><stop offset="1" stop-color="#03045E"/></linearGradient><linearGradient id="paint1_linear_2014_708" x1="170.82" y1=".988" x2="3.18" y2="193.101" gradientUnits="userSpaceOnUse"><stop stop-color="#03045E"/><stop offset="1" stop-color="#03045E"/></linearGradient><filter id="filter0_f_2014_708" x="-261.812" y="-68.812" width="563.064" height="563.064" filterUnits="userSpaceOnUse" color-interpolation-filters="sRGB"><feFlood flood-opacity="0" result="BackgroundImageFix"/><feBlend in="SourceGraphic" in2="BackgroundImageFix" result="shape"/><feGaussianBlur stdDeviation="87.406" result="effect1_foregroundBlur_2014_708"/></filter><filter id="filter1_f_2014_708" x="-78.812" y="-277.812" width="563.064" height="563.064" filterUnits="userSpaceOnUse" color-interpolation-filters="sRGB"><feFlood flood-opacity="0" result="BackgroundImageFix"/><feBlend in="SourceGraphic" in2="BackgroundImageFix" result="shape"/><feGaussianBlur stdDeviation="87.406" result="effect1_foregroundBlur_2014_708"/></filter></defs></svg>