<svg width="176" height="176" fill="none" xmlns="http://www.w3.org/2000/svg"><mask id="a" style="mask-type:alpha" maskUnits="userSpaceOnUse" x="-1" y="0" width="178" height="177"><path d="M150.225 25.775a87.998 87.998 0 01-95.901 143.527A87.997 87.997 0 011.69 70.832 88 88 0 0188 0v88l62.225-62.225z" fill="url(#paint0_linear_2025_713)"/></mask><g mask="url(#a)"><path d="M150.225 25.775a87.998 87.998 0 01-95.901 143.527A87.997 87.997 0 011.69 70.832 88 88 0 0188 0v88l62.225-62.225z" fill="url(#paint1_linear_2025_713)"/><g clip-path="url(#clip0_2025_713)"><path fill-rule="evenodd" clip-rule="evenodd" d="M63.946 75c1.832 0 3.597.688 4.94 1.927a7.207 7.207 0 012.305 4.754l.018.541V107.5h3.632a7.284 7.284 0 014.941 1.927 7.204 7.204 0 012.304 4.754l.019.541v9.028a1.8 1.8 0 00.474 1.22 1.823 1.823 0 002.442.22c.36-.273.605-.671.686-1.115l.03-.325V107.5a7.353 7.353 0 01-4.08-1.246 7.22 7.22 0 01-3.037-4.533 7.188 7.188 0 011.011-5.354l.273-.394-3.999-3.972a3.599 3.599 0 01-.169-4.953 3.647 3.647 0 014.963-.456l.341.3 9.832 9.775a7.204 7.204 0 012.099 4.47l.029.636v21.977a9 9 0 01-2.547 6.292 9.1 9.1 0 01-6.234 2.753 9.114 9.114 0 01-6.403-2.34 9.01 9.01 0 01-2.957-6.113l-.018-.592v-9.028h-3.632v18.056a3.642 3.642 0 012.49.985 3.6 3.6 0 01.292 4.944 3.642 3.642 0 01-2.357 1.268l-.425.025H27.628a3.642 3.642 0 01-2.49-.985 3.6 3.6 0 01-.292-4.944 3.638 3.638 0 012.357-1.268l.425-.025V82.222a7.2 7.2 0 011.937-4.913 7.28 7.28 0 014.782-2.29L34.89 75h29.055zm0 36.111H34.89v21.667h29.055v-21.667zm0-28.889H34.89v21.667h29.055V82.222z" fill="url(#paint2_linear_2025_713)"/></g><g filter="url(#filter0_d_2025_713)"><path d="M87.996 0a87.999 87.999 0 0162.225 25.775L87.996 88.001V0z" fill="url(#paint3_linear_2025_713)"/></g></g><path d="M88 0a88.001 88.001 0 0176.21 132L88 88V0z" fill="#fff"/><path d="M88 0a88.001 88.001 0 0176.21 132L88 88V0z" fill="url(#paint4_linear_2025_713)"/><path fill-rule="evenodd" clip-rule="evenodd" d="M128.001 37.002c13.807 0 25 11.192 25 25 0 13.807-11.193 25-25 25-13.808 0-25-11.193-25-25 0-13.808 11.192-25 25-25zm0 5a19.999 19.999 0 100 39.998 19.999 19.999 0 000-39.998zm3.75 5a8.746 8.746 0 018.084 5.401 8.745 8.745 0 01-1.897 9.536 8.741 8.741 0 01-6.187 2.562h-6.25v2.5h5a2.501 2.501 0 010 5h-5v2.5a2.503 2.503 0 01-2.5 2.5 2.5 2.5 0 01-2.5-2.5v-2.5h-1.25a2.5 2.5 0 010-5h1.25v-2.5h-1.25a2.5 2.5 0 010-5h1.25v-10a2.499 2.499 0 012.5-2.5h8.75zm0 5h-6.25v7.5h6.25a3.753 3.753 0 003.75-3.75 3.75 3.75 0 00-3.75-3.75z" fill="url(#paint5_linear_2025_713)"/><defs><linearGradient id="paint0_linear_2025_713" x1="176" y1="30.519" x2="0" y2="145.482" gradientUnits="userSpaceOnUse"><stop stop-color="#D9D9D9"/><stop offset="1" stop-color="#737373"/></linearGradient><linearGradient id="paint1_linear_2025_713" x1="176" y1="30.519" x2="0" y2="145.482" gradientUnits="userSpaceOnUse"><stop stop-color="#0858F4" stop-opacity=".1"/><stop offset="1" stop-color="#0858F4" stop-opacity=".3"/></linearGradient><linearGradient id="paint2_linear_2025_713" x1="90.223" y1="75" x2="27.15" y2="140.36" gradientUnits="userSpaceOnUse"><stop stop-color="#0858F4" stop-opacity=".1"/><stop offset="1" stop-color="#090B99" stop-opacity=".3"/></linearGradient><linearGradient id="paint3_linear_2025_713" x1="115.955" y1="0" x2="87.996" y2="88.001" gradientUnits="userSpaceOnUse"><stop stop-color="#03045E"/><stop offset="1" stop-color="#03045E"/></linearGradient><linearGradient id="paint4_linear_2025_713" x1="88" y1="-2" x2="154.5" y2="126.5" gradientUnits="userSpaceOnUse"><stop stop-color="#03045E"/><stop offset="1" stop-color="#02419F" stop-opacity=".74"/></linearGradient><linearGradient id="paint5_linear_2025_713" x1="109.132" y1="37.002" x2="146.869" y2="87.001" gradientUnits="userSpaceOnUse"><stop stop-color="#fff" stop-opacity=".34"/><stop offset="1" stop-color="#fff" stop-opacity="0"/></linearGradient><clipPath id="clip0_2025_713"><path fill="#fff" transform="translate(0 15)" d="M0 0h186v186H0z"/></clipPath><filter id="filter0_d_2025_713" x="70.396" y="-17.599" width="97.425" height="123.2" filterUnits="userSpaceOnUse" color-interpolation-filters="sRGB"><feFlood flood-opacity="0" result="BackgroundImageFix"/><feColorMatrix in="SourceAlpha" values="0 0 0 0 0 0 0 0 0 0 0 0 0 0 0 0 0 0 127 0" result="hardAlpha"/><feOffset/><feGaussianBlur stdDeviation="8.8"/><feComposite in2="hardAlpha" operator="out"/><feColorMatrix values="0 0 0 0 0 0 0 0 0 0.0968333 0 0 0 0 0.345833 0 0 0 0.61 0"/><feBlend in2="BackgroundImageFix" result="effect1_dropShadow_2025_713"/><feBlend in="SourceGraphic" in2="effect1_dropShadow_2025_713" result="shape"/></filter></defs></svg>