<svg width="157" height="127" fill="none" xmlns="http://www.w3.org/2000/svg"><path fill-rule="evenodd" clip-rule="evenodd" d="M136.945-.833a14.985 14.985 0 016.014 19.478l-.529.992-26.224 45.42 6.489 3.747a14.985 14.985 0 016.014 19.478l-.53.992-9.365 16.222a3.744 3.744 0 001.082 4.94 3.747 3.747 0 005.017-.64l.389-.554 16.859-29.2a15.115 15.115 0 01-5.995-6.445 14.988 14.988 0 016.637-19.856l.895-.427-3.023-11.262a7.49 7.49 0 0110.36-8.78 7.496 7.496 0 013.817 4.005l.298.891 7.424 27.706a14.98 14.98 0 01-.887 10.198l-.608 1.172-22.799 39.49a18.734 18.734 0 01-25.073 7.194 18.732 18.732 0 01-7.953-24.842l.582-1.083 9.366-16.222-6.489-3.746-18.73 32.444a7.49 7.49 0 012.943 9.844 7.495 7.495 0 01-9.65 3.526l-.786-.393L4.626 78.501a7.492 7.492 0 016.707-13.37l.785.393 52.447-90.842a14.985 14.985 0 0119.478-6.014l.992.53 51.91 29.97zM99.482 64.054l-51.91-29.97-22.477 38.932 51.91 29.97 22.477-38.932zm29.97-51.91l-51.91-29.97-22.477 38.933 51.91 29.97 22.477-38.932z" fill="url(#paint0_linear_4_23)"/><defs><linearGradient id="paint0_linear_4_23" x1="127.215" y1="-6.45" x2="59.783" y2="110.346" gradientUnits="userSpaceOnUse"><stop stop-color="#0BAE5F" stop-opacity=".31"/><stop offset="1" stop-color="#00FF75" stop-opacity="0"/></linearGradient></defs></svg>