<svg width="136" height="153" fill="none" xmlns="http://www.w3.org/2000/svg"><path d="M125.918-3.119a83.43 83.43 0 11-83.43 144.502 83.43 83.43 0 0183.43-144.502zm-9.27 16.056A64.894 64.894 0 0044.7 17.653a64.893 64.893 0 00-11.978 90.983 64.891 64.891 0 00107.677-7.057 64.891 64.891 0 00-23.751-88.642zm-9.27 16.057a9.27 9.27 0 013.879 11.69l-.486.973L94.15 70.445l6.156 22.95a9.267 9.267 0 01-5.983 11.227 9.268 9.268 0 01-11.557-5.319l-.373-1.114-7.143-26.656a9.233 9.233 0 01.439-6.062l.546-1.077 18.48-32.007a9.27 9.27 0 0112.663-3.393zm60.516-18.903a9.272 9.272 0 0112.662 3.414 111.77 111.77 0 0113.393 37.447 9.273 9.273 0 01-7.664 10.407 9.271 9.271 0 01-10.618-7.368 93.171 93.171 0 00-11.179-31.234 9.27 9.27 0 01-.92-7.033 9.295 9.295 0 014.326-5.633zM84.206-42.112a9.27 9.27 0 11.021 18.541 93.192 93.192 0 00-32.643 5.944 9.272 9.272 0 01-12.178-5.329 9.268 9.268 0 015.669-12.023 111.731 111.731 0 0139.131-7.133z" fill="url(#paint0_linear_4_33)"/><defs><linearGradient id="paint0_linear_4_33" x1="132.865" y1="-15.473" x2="42.349" y2="141.306" gradientUnits="userSpaceOnUse"><stop stop-color="#03045E" stop-opacity=".35"/><stop offset="1" stop-color="#03045E" stop-opacity="0"/></linearGradient></defs></svg>