<svg width="18" height="18" fill="none" xmlns="http://www.w3.org/2000/svg"><path fill-rule="evenodd" clip-rule="evenodd" d="M12.793 17.444c-1.2-.044-4.6-.514-8.162-4.075C1.071 9.807.601 6.407.556 5.207.489 3.377 1.891 1.599 3.51.905a1.225 1.225 0 011.204.133c1.334.971 2.254 2.441 3.044 3.597a1.253 1.253 0 01-.214 1.655L5.92 7.497a.4.4 0 00-.119.514c.369.669 1.024 1.666 1.774 2.416s1.794 1.448 2.51 1.858a.402.402 0 00.536-.135l1.059-1.61a1.253 1.253 0 011.713-.277c1.172.811 2.54 1.715 3.542 2.998a1.225 1.225 0 01.158 1.237c-.698 1.628-2.463 3.014-4.298 2.946z" fill="#B3B6C0"/></svg>