<svg width="21" height="21" fill="none" xmlns="http://www.w3.org/2000/svg"><path fill-rule="evenodd" clip-rule="evenodd" d="M7.172 13.829c3.845 3.845 7.408 4.266 8.454 4.305 1.264.046 2.554-.986 3.112-2.043-.89-1.044-2.049-1.854-3.318-2.732-.749.748-1.672 2.138-2.901 1.64-.699-.281-2.425-1.076-3.933-2.585C7.077 10.906 6.283 9.18 6 8.482c-.498-1.231.896-2.156 1.645-2.905-.878-1.29-1.674-2.479-2.716-3.324-1.072.56-2.11 1.84-2.063 3.121.039 1.046.46 4.609 4.306 8.455zm8.38 6.304c-1.44-.053-5.521-.617-9.795-4.89C1.484 10.969.921 6.889.867 5.448.787 3.252 2.469 1.119 4.412.286a1.47 1.47 0 011.445.159c1.608 1.173 2.717 2.95 3.67 4.342A1.504 1.504 0 019.35 6.7L7.994 8.057C8.309 8.752 8.95 9.95 10 11c1.05 1.05 2.248 1.691 2.944 2.006l1.355-1.356a1.503 1.503 0 011.918-.171c1.42.984 3.088 2.077 4.304 3.634a1.47 1.47 0 01.189 1.485c-.837 1.953-2.955 3.616-5.158 3.535z" fill="#0BAE5F"/></svg>