<svg width="50" height="54" fill="none" xmlns="http://www.w3.org/2000/svg"><path d="M0 0h50v38.854a5 5 0 01-2.836 4.507l-20 9.6a5 5 0 01-4.328 0l-20-9.6A5 5 0 010 38.854V0z" fill="#36317B"/><g clip-path="url(#clip0_37_1058)"><path fill-rule="evenodd" clip-rule="evenodd" d="M26.13 15.247c.579-.695 1.707-.22 1.615.68l-.647 6.323h5.235a.917.917 0 01.704 1.503l-9.166 11c-.58.695-1.708.22-1.616-.68l.647-6.323h-5.235a.917.917 0 01-.704-1.503l9.166-11z" fill="#3ED05E"/></g><defs><clipPath id="clip0_37_1058"><path fill="#fff" transform="translate(14 14)" d="M0 0h22v22H0z"/></clipPath></defs></svg>