<svg width="100" height="56" fill="none" xmlns="http://www.w3.org/2000/svg"><path fill-rule="evenodd" clip-rule="evenodd" d="M66.837 32.644l-3.03 5.249a4.545 4.545 0 001.436 6.07l.227.14 6.561 3.787 5.304-9.185-10.498-6.061zm13.122 7.576l-5.303 9.185 6.561 3.788a4.545 4.545 0 006.07-1.436l.14-.227 3.03-5.25-10.498-6.06zm12.153-13.98a6.55 6.55 0 00-5.559-.472 6.553 6.553 0 00-2.867-4.38l-.323-.198-.086-.05a3.94 3.94 0 00-5.382 1.442 5.17 5.17 0 00-.62 1.712l-.046.353-.394-.228a4.546 4.546 0 00-6.07 1.437l-.14.227-2.273 3.936L78.85 36.08l4.546-7.873 2.624 1.515-4.546 7.873 10.498 6.061 2.273-3.936a4.545 4.545 0 00-1.437-6.07l-.227-.14-.394-.227a5.155 5.155 0 001.455-1.61 3.94 3.94 0 00-1.23-5.25l-.212-.131-.088-.051zm-1.515 2.625l.088.051a.909.909 0 01.332 1.242 2.121 2.121 0 01-2.897.776l-2.07-1.194a3.536 3.536 0 014.546-.875zm-8.835-5.1l.087.05c1.47.849 2.1 2.59 1.598 4.142l-.082.232-2.069-1.194a2.121 2.121 0 01-.776-2.898.909.909 0 011.108-.396l.133.063z" fill="#3ED05E"/><g clip-path="url(#clip0_2067_998)"><path fill-rule="evenodd" clip-rule="evenodd" d="M33.61 22.787l1.635 4.058a3.28 3.28 0 004.089 1.883l.18-.067 5.072-2.044-2.861-7.1-8.116 3.27zM43.752 18.7l2.862 7.1 5.072-2.043a3.281 3.281 0 001.884-4.09l-.067-.18-1.636-4.058-8.115 3.27zM41.214 5.572a4.728 4.728 0 00-2.742 2.95 4.73 4.73 0 00-3.765-.32l-.256.096-.067.027a2.843 2.843 0 00-1.575 3.7c.17.422.41.795.698 1.114l.18.183-.305.123a3.281 3.281 0 00-1.884 4.09l.067.18 1.227 3.043 8.115-3.27-2.453-6.087 2.029-.817 2.453 6.086 8.115-3.27-1.227-3.044a3.281 3.281 0 00-4.089-1.883l-.18.066-.305.123a3.722 3.722 0 00-.268-1.543 2.844 2.844 0 00-3.532-1.636l-.168.062-.068.027zm.818 2.029l.068-.027a.656.656 0 01.854.363 1.531 1.531 0 01-.848 1.992l-1.599.645A2.553 2.553 0 0142.032 7.6zm-6.83 2.753l.068-.028a2.55 2.55 0 013.065.935l.096.15-1.6.644a1.531 1.531 0 01-1.993-.847.657.657 0 01.268-.807l.096-.047z" fill="#3ED05E"/></g><g clip-path="url(#clip1_2067_998)"><path fill-rule="evenodd" clip-rule="evenodd" d="M4.623 37.375l-.553 3.132a2.385 2.385 0 001.796 2.735l.138.028 3.914.692.968-5.48-6.263-1.107zm7.829 1.383l-.968 5.48 3.914.692a2.385 2.385 0 002.736-1.797l.028-.137.553-3.131-6.263-1.107zm3.486-9.072a3.437 3.437 0 00-2.826.764 3.438 3.438 0 00-2.199-1.646l-.194-.04-.052-.009a2.067 2.067 0 00-2.395 1.676 2.71 2.71 0 00.001.955l.04.183-.235-.042a2.385 2.385 0 00-2.735 1.797l-.028.137L4.9 35.81l6.263 1.106.83-4.697 1.565.276-.83 4.698 6.264 1.106.415-2.349a2.385 2.385 0 00-1.797-2.735l-.137-.028-.235-.042c.21-.307.36-.663.428-1.054a2.066 2.066 0 00-1.548-2.369l-.127-.026-.053-.01zm-.277 1.566l.053.01a.478.478 0 01.387.552 1.113 1.113 0 01-1.29.903l-1.234-.218a1.855 1.855 0 012.085-1.247zm-5.27-.931l.052.01c.877.154 1.5.9 1.53 1.755l.002.13-1.235-.219a1.113 1.113 0 01-.902-1.29.477.477 0 01.475-.393l.077.007z" fill="#3ED05E"/></g><defs><clipPath id="clip0_2067_998"><path fill="#fff" transform="scale(-1 1) rotate(21.95 -24.594 -126.82)" d="M0 0h26.249v26.249H0z"/></clipPath><clipPath id="clip1_2067_998"><path fill="#fff" transform="scale(-1 1) rotate(-10.019 155.743 145.856)" d="M0 0h19.08v19.08H0z"/></clipPath></defs></svg>