<svg width="100" height="56" fill="none" xmlns="http://www.w3.org/2000/svg"><path fill-rule="evenodd" clip-rule="evenodd" d="M33.163 32.644l3.03 5.249a4.545 4.545 0 01-1.436 6.07l-.227.14-6.562 3.787-5.303-9.185 10.498-6.061zM20.041 40.22l5.303 9.185-6.561 3.788a4.545 4.545 0 01-6.07-1.436l-.14-.227-3.03-5.25 10.498-6.06zM7.888 26.24a6.55 6.55 0 015.559-.472 6.553 6.553 0 012.867-4.38l.323-.198.086-.05a3.94 3.94 0 015.382 1.442 5.17 5.17 0 01.62 1.712l.045.353.396-.228a4.546 4.546 0 016.07 1.437l.139.227 2.273 3.936L21.15 36.08l-4.546-7.873-2.624 1.515 4.546 7.873-10.498 6.061-2.273-3.936a4.546 4.546 0 011.437-6.07l.227-.14.394-.227a5.155 5.155 0 01-1.455-1.61 3.94 3.94 0 011.23-5.25l.212-.131.088-.051zm1.515 2.625l-.088.051a.91.91 0 00-.332 1.242 2.121 2.121 0 002.897.776l2.068-1.194a3.536 3.536 0 00-4.545-.875zm8.835-5.1l-.087.05a3.532 3.532 0 00-1.598 4.142l.082.232 2.069-1.194a2.121 2.121 0 00.776-2.898.909.909 0 00-1.108-.396l-.134.063z" fill="#3ED05E"/><g clip-path="url(#clip0_2067_999)"><path fill-rule="evenodd" clip-rule="evenodd" d="M66.39 22.787l-1.635 4.058a3.28 3.28 0 01-4.089 1.883l-.18-.067-5.072-2.044 2.861-7.1 8.116 3.27zM56.248 18.7l-2.862 7.1-5.072-2.043a3.282 3.282 0 01-1.884-4.09l.067-.18 1.636-4.058 8.115 3.27zm2.539-13.127a4.728 4.728 0 012.742 2.95 4.73 4.73 0 013.765-.32l.256.096.067.027a2.844 2.844 0 011.575 3.7 3.73 3.73 0 01-.698 1.114l-.18.183.305.123a3.282 3.282 0 011.884 4.09l-.067.18-1.227 3.043-8.115-3.27 2.453-6.087-2.029-.817-2.453 6.086-8.115-3.27 1.227-3.044a3.281 3.281 0 014.089-1.883l.18.066.305.123a3.722 3.722 0 01.268-1.543 2.844 2.844 0 013.532-1.636l.168.062.068.027zm-.818 2.029l-.068-.027a.656.656 0 00-.853.363 1.531 1.531 0 00.847 1.992l1.599.645A2.553 2.553 0 0057.968 7.6zm6.83 2.753l-.068-.028a2.55 2.55 0 00-3.065.935l-.096.15 1.6.644a1.531 1.531 0 001.993-.847.656.656 0 00-.269-.807l-.095-.047z" fill="#3ED05E"/></g><g clip-path="url(#clip1_2067_999)"><path fill-rule="evenodd" clip-rule="evenodd" d="M95.377 37.375l.553 3.132a2.385 2.385 0 01-1.796 2.735l-.138.028-3.914.692-.968-5.48 6.263-1.107zm-7.829 1.383l.968 5.48-3.914.692a2.385 2.385 0 01-2.736-1.797l-.028-.137-.553-3.131 6.263-1.107zm-3.486-9.072a3.437 3.437 0 012.826.764 3.438 3.438 0 012.199-1.646l.194-.04.052-.009a2.067 2.067 0 012.395 1.676 2.71 2.71 0 01-.001.955l-.04.183.235-.042a2.385 2.385 0 012.735 1.797l.028.137.415 2.349-6.263 1.106-.83-4.697-1.565.276.83 4.698-6.264 1.106-.415-2.349a2.385 2.385 0 011.797-2.735l.137-.028.235-.042a2.707 2.707 0 01-.428-1.054 2.067 2.067 0 011.548-2.369l.127-.026.053-.01zm.276 1.566l-.052.01a.478.478 0 00-.387.552 1.113 1.113 0 001.29.903l1.234-.218a1.856 1.856 0 00-2.085-1.247zm5.272-.931l-.053.01c-.877.154-1.5.9-1.53 1.755l-.002.13 1.235-.219a1.113 1.113 0 00.902-1.29.477.477 0 00-.475-.393l-.077.007z" fill="#3ED05E"/></g><defs><clipPath id="clip0_2067_999"><path fill="#fff" transform="rotate(21.95 25.406 131.005)" d="M0 0h26.249v26.249H0z"/></clipPath><clipPath id="clip1_2067_999"><path fill="#fff" transform="rotate(-10.019 205.743 -424.563)" d="M0 0h19.08v19.08H0z"/></clipPath></defs></svg>