<svg width="281" height="58" fill="none" xmlns="http://www.w3.org/2000/svg"><path d="M199.158 4.766c-36.547-1.914-72.922-3.283-109.681-1.368-14.562.758-29.142 1.53-43.695 2.414-9.58.582-19.224.93-28.31 3.565C9.237 11.763 1.708 17.534 1.93 24.165c.196 5.862 5.03 10.218 10.654 14.162 10.98 7.7 24.711 11.566 39.567 13.906 20.452 3.22 42.291 3.457 63.257 3.058 22.444-.426 44.981-1.147 67.267-3.519 20.425-2.174 40.669-5.213 60.528-9.456 10.319-2.204 22.554-4.414 31.624-8.916 14.846-7.368-15.105-14.933-20.901-16.121-17.961-3.681-36.276-5.488-54.833-7.094-17.035-1.474-34.08-2.969-51.228-3.708" stroke="#0BAE5F" stroke-width="3.682" stroke-linecap="round"/></svg>