<svg width="457" height="49" fill="none" xmlns="http://www.w3.org/2000/svg"><path d="M455 22.056C424.27 9.772 383.749 8.634 347.571 6.924c-29.209-1.38-58.295-2.823-87.609-3.333-31.19-.542-62.525.664-93.688-.236C132.104 2.37 96.33.697 62.37 3.74c-12.213 1.094-22.517 3.556-33.102 7.167-7.963 2.717-21.485 6-25.338 11.268-11.25 15.383 29.644 19.148 46.129 20.558 27.696 2.37 56.531 1.15 84.441 2.153 39.669 1.426 79.294 1.593 119.025 1.593 29.775 0 62.138 1.937 91.492-1.652 18.384-2.248 34.354-7.165 51.186-11.65 12.171-3.244 22.865-8.09 35.094-11.356 5.919-1.581 14.652-4.095 19.105-6.666" stroke="#0BAE5F" stroke-width="3" stroke-linecap="round"/></svg>