<svg width="401" height="55" fill="none" xmlns="http://www.w3.org/2000/svg"><path d="M186.74 9.442c-27.285-.84-54.412 3.553-81.697 4.672-30.351 1.246-60.529-1.042-90.843-.917-2.836.012-11.549.11-12.146 4.851-.666 5.28 1.31 8.28 4.825 11.434 9.4 8.431 20.984 13.263 32.452 16.38 31.935 8.683 66.219 7.117 98.76 5.885 48.933-1.854 97.823-4.785 146.775-5.428 24.537-.322 49.236.137 73.748-1.657 12.146-.89 25.005-1.283 36.917-4.548 7.164-1.963-.135-4.88-3.65-6.674-11.735-5.992-25.28-7.69-37.736-10.609-27.152-6.361-54.5-10.71-82.093-13.73-21.73-2.377-43.56-3.07-65.341-4.687-10.83-.804-21.755-1.799-32.605-2.133" stroke="#0BAE5F" stroke-width="3" stroke-linecap="round"/></svg>