<svg width="318" height="49" fill="none" xmlns="http://www.w3.org/2000/svg"><path d="M316 22.056C294.7 9.772 266.612 8.634 241.535 6.924c-20.247-1.38-40.407-2.823-60.727-3.333-21.619-.542-43.339.664-64.94-.236C92.182 2.37 67.385.697 43.846 3.74 35.38 4.833 28.238 7.295 20.9 10.906c-5.52 2.717-14.893 6-17.563 11.268-7.798 15.383 20.548 19.148 31.974 20.558 19.198 2.37 39.185 1.15 58.531 2.153 27.497 1.426 54.964 1.593 82.504 1.593 20.638 0 43.071 1.937 63.417-1.652 12.744-2.248 23.813-7.165 35.48-11.65 8.437-3.244 15.85-8.09 24.326-11.356 4.103-1.581 10.156-4.095 13.243-6.666" stroke="#0BAE5F" stroke-width="3" stroke-linecap="round"/></svg>