<svg width="229" height="65" fill="none" xmlns="http://www.w3.org/2000/svg"><path d="M206.201 16.362c-40.804-5.501-81.666-11.074-122.79-13.63-13.735-.854-27.792-.975-41.543-.287-8.449.422-16.706 1.772-24.734 4.46-7.159 2.397-17.74 6.742-14.55 16.31 2.22 6.66 8.62 11.545 13.995 15.546 9.467 7.049 21.501 12.043 32.794 15.277 31.486 9.016 65.14 11.655 97.596 7.275 23.265-3.14 47.053-8.425 68.766-17.536 3.229-1.355 9.279-3.236 10.721-6.892.539-1.368.296-2.289-.651-3.446-2.92-3.566-6.825-6.293-10.836-8.481-10.444-5.697-21.951-9.474-33.272-12.999-14.218-4.426-29.043-7.073-43.726-9.38" stroke="#0BAE5F" stroke-width="3" stroke-linecap="round"/></svg>