<svg width="18" height="18" fill="none" xmlns="http://www.w3.org/2000/svg"><path d="M17.18 10.604a8.344 8.344 0 01-6.217 6.497c.425-.502.793-1.152 1.099-1.89.304-.733.558-1.584.746-2.516 1.398-.36 2.664-.913 3.725-1.62.224-.15.44-.307.646-.47zm-16.36 0a9.9 9.9 0 00.647.47c1.06.708 2.326 1.261 3.725 1.621.187.932.441 1.783.746 2.517.305.736.674 1.387 1.099 1.889A8.344 8.344 0 01.82 10.604zm10.203 2.434a11.2 11.2 0 01-.501 1.536c-.29.699-.608 1.213-.91 1.539-.308.333-.52.387-.612.387-.092 0-.303-.054-.612-.387-.302-.325-.62-.84-.91-1.539-.203-.5-.37-1.013-.5-1.537a15.77 15.77 0 004.045 0zm.446-5.097a18.065 18.065 0 01-.118 3.362c-.748.129-1.536.197-2.35.197-.789 0-1.576-.065-2.353-.197a17.676 17.676 0 01-.117-3.362 13.537 13.537 0 004.938 0zm5.086-2.462a8.26 8.26 0 01.733 2.658c-.417.56-.98 1.085-1.68 1.55-.725.483-1.58.891-2.532 1.197.109-1.12.12-2.248.035-3.37a9.974 9.974 0 002.236-1.068c.434-.28.84-.604 1.208-.967zm-15.11 0c.358.356.767.68 1.208.967A9.958 9.958 0 004.89 7.513a19.66 19.66 0 00.034 3.371 10.189 10.189 0 01-2.532-1.197c-.698-.465-1.262-.99-1.68-1.55.097-.942.35-1.836.733-2.659l.001.001zM9 1.5c.092 0 .303.055.613.388.301.325.62.84.909 1.539.325.786.595 1.756.768 2.85A11.59 11.59 0 019 6.5a11.657 11.657 0 01-2.29-.223c.173-1.094.443-2.064.768-2.85.29-.699.608-1.213.909-1.539.31-.333.52-.388.613-.388zm1.963-.6a8.34 8.34 0 014.7 3.095 5.6 5.6 0 01-1.225 1.053c-.482.31-.997.568-1.535.77-.192-1.135-.483-2.163-.841-3.029-.306-.737-.674-1.388-1.1-1.89zM7.038.9c-.425.5-.794 1.152-1.1 1.89-.358.866-.65 1.893-.841 3.027a8.096 8.096 0 01-1.535-.769 5.603 5.603 0 01-1.225-1.053 8.34 8.34 0 014.7-3.096z" fill="#B3B6C0"/></svg>